<svg width="24" height="24" viewBox="0 0 24 24" fill="none" xmlns="http://www.w3.org/2000/svg">
<path d="M20.5665 0.629395H2.69829C1.32772 0.629395 0.261719 1.74616 0.261719 3.06597V20.9342C0.261719 22.3047 1.32772 23.3707 2.69829 23.3707H9.65267V15.6549H6.45467V12.0001H9.65267V9.25892C9.65267 6.11168 11.5309 4.33501 14.3735 4.33501C15.7949 4.33501 17.2162 4.58882 17.2162 4.58882V7.6853H15.6426C14.069 7.6853 13.5613 8.64978 13.5613 9.66502V12.0001H17.0639L16.5055 15.6549H13.5613V23.3707H20.5665C21.8863 23.3707 23.0031 22.3047 23.0031 20.9342V3.06597C23.0031 1.74616 21.8863 0.629395 20.5665 0.629395Z" fill="white"/>
</svg>
