<svg width="24" height="24" viewBox="0 0 24 24" fill="none" xmlns="http://www.w3.org/2000/svg">
<path fill-rule="evenodd" clip-rule="evenodd" d="M21.3573 2.53297C22.6771 3.85278 23.0832 5.47716 23.1847 7.30459C23.2863 9.18278 23.2863 14.8174 23.1847 16.6955C23.0832 18.523 22.6771 20.0966 21.3573 21.4672C20.0375 22.787 18.4131 23.1931 16.5857 23.2946C14.7075 23.3961 9.07291 23.3961 7.19472 23.2946C5.36729 23.1931 3.79367 22.787 2.4231 21.4672C1.10329 20.0966 0.697198 18.523 0.595674 16.6955C0.49415 14.8174 0.49415 9.18278 0.595674 7.30459C0.697198 5.47716 1.10329 3.85278 2.4231 2.53297C3.79367 1.21316 5.36729 0.807061 7.19472 0.705537C9.07291 0.604014 14.7075 0.604014 16.5857 0.705537C18.4131 0.807061 20.0375 1.21316 21.3573 2.53297ZM11.915 6.13706C8.66627 6.13706 6.07741 8.77668 6.07741 11.9747C6.07741 15.2234 8.66627 17.8123 11.915 17.8123C15.113 17.8123 17.7527 15.2234 17.7527 11.9747C17.7527 8.77668 15.113 6.13706 11.915 6.13706ZM19.3263 5.93401C19.3263 5.17258 18.7171 4.56344 17.9557 4.56344C17.1943 4.56344 16.5851 5.17258 16.5851 5.93401C16.5851 6.69544 17.1943 7.30458 17.9557 7.30458C18.7171 7.30458 19.3263 6.69544 19.3263 5.93401ZM11.9154 15.7818C9.83419 15.7818 8.10829 14.1067 8.10829 11.9747C8.10829 9.89345 9.78343 8.2183 11.9154 8.2183C13.9967 8.2183 15.6718 9.89345 15.6718 11.9747C15.6718 14.1067 13.9967 15.7818 11.9154 15.7818Z" fill="white"/>
</svg>
