<svg width="24" height="24" viewBox="0 0 24 24" fill="none" xmlns="http://www.w3.org/2000/svg">
<path d="M21.3767 0.629395H1.83338C0.970432 0.629395 0.259766 1.39082 0.259766 2.30454V21.7464C0.259766 22.6601 0.970432 23.3707 1.83338 23.3707H21.3767C22.2397 23.3707 23.0011 22.6601 23.0011 21.7464V2.30454C23.0011 1.39082 22.2397 0.629395 21.3767 0.629395ZM7.11262 20.122H3.76234V9.30968H7.11262V20.122ZM5.43748 7.78682C4.32072 7.78682 3.45777 6.92387 3.45777 5.85787C3.45777 4.79187 4.32072 3.87816 5.43748 3.87816C6.50348 3.87816 7.36643 4.79187 7.36643 5.85787C7.36643 6.92387 6.50348 7.78682 5.43748 7.78682ZM19.7523 20.122H16.3513V14.8427C16.3513 13.6244 16.3513 12.0001 14.6254 12.0001C12.8487 12.0001 12.5949 13.3706 12.5949 14.792V20.122H9.24463V9.30968H12.4426V10.7818H12.4934C12.9502 9.91883 14.067 9.00511 15.6914 9.00511C19.0924 9.00511 19.7523 11.2894 19.7523 14.1828V20.122Z" fill="white"/>
</svg>
