<svg width="17" height="16" viewBox="0 0 17 16" fill="none" xmlns="http://www.w3.org/2000/svg">
<path d="M16.1345 15.8516L10.2983 10.0155C9.80372 10.4276 9.23494 10.7491 8.59197 10.9799C7.949 11.2107 7.30604 11.3261 6.66307 11.3261C5.06389 11.3261 3.7163 10.7778 2.62029 9.68111C1.52362 8.5851 0.975281 7.24575 0.975281 5.66306C0.975281 4.08037 1.52362 2.74069 2.62029 1.64402C3.7163 0.548006 5.05565 0 6.63834 0C8.22103 0 9.56467 0.548006 10.6693 1.64402C11.7738 2.74069 12.3261 4.08037 12.3261 5.66306C12.3261 6.35549 12.2025 7.02318 11.9552 7.66615C11.7079 8.30912 11.3864 8.85317 10.9907 9.2983L16.8764 15.1839C16.9588 15.2664 17 15.3696 17 15.4935C17 15.6169 16.9423 15.7362 16.8269 15.8516C16.728 15.9505 16.6169 16 16.4935 16C16.3696 16 16.2499 15.9505 16.1345 15.8516ZM6.66307 10.3369C7.96549 10.3369 9.07008 9.88785 9.97682 8.98967C10.8836 8.09084 11.3369 6.98197 11.3369 5.66306C11.3369 4.34415 10.8836 3.23528 9.97682 2.33644C9.07008 1.43827 7.96549 0.989181 6.66307 0.989181C5.34416 0.989181 4.23133 1.43827 3.32459 2.33644C2.41784 3.23528 1.96446 4.34415 1.96446 5.66306C1.96446 6.98197 2.41784 8.09084 3.32459 8.98967C4.23133 9.88785 5.34416 10.3369 6.66307 10.3369Z" fill="#1C1B1F"/>
</svg>
