<svg width="25" height="20" viewBox="0 0 25 20" fill="none" xmlns="http://www.w3.org/2000/svg">
<path d="M21.7909 4.98254C22.7403 4.26233 23.5948 3.39808 24.2594 2.38979C23.4049 2.7739 22.408 3.06198 21.4112 3.15801C22.4555 2.53383 23.215 1.57355 23.5948 0.373206C22.6454 0.949372 21.5536 1.3815 20.4617 1.62157C19.5123 0.613275 18.2306 0.0371094 16.8065 0.0371094C14.0532 0.0371094 11.8221 2.29376 11.8221 5.07856C11.8221 5.46267 11.8696 5.84678 11.9645 6.2309C7.83459 5.99083 4.13189 3.97424 1.66342 0.949372C1.23619 1.66958 0.998834 2.53383 0.998834 3.49411C0.998834 5.2226 1.8533 6.75905 3.22995 7.67131C2.42295 7.6233 1.61595 7.43124 0.951363 7.04713V7.09514C0.951363 9.54385 2.6603 11.5604 4.93889 12.0406C4.55912 12.1366 4.08442 12.2326 3.65718 12.2326C3.32489 12.2326 3.04007 12.1846 2.70777 12.1366C3.32489 14.1532 5.17624 15.5936 7.35988 15.6416C5.65094 16.986 3.51477 17.8022 1.18872 17.8022C0.761481 17.8022 0.381717 17.7542 0.00195312 17.7062C2.1856 19.1466 4.79647 19.9629 7.6447 19.9629C16.8065 19.9629 21.7909 12.3287 21.7909 5.65473C21.7909 5.41466 21.7909 5.2226 21.7909 4.98254Z" fill="white"/>
</svg>
