<svg width="192" height="34" viewBox="0 0 192 34" fill="none" xmlns="http://www.w3.org/2000/svg">
<path d="M14.05 0H0V6.8L12.9615 6.8C19.7719 6.8 22.0596 12.2238 22.3864 14.2476C23.1863 12.8614 23.681 11.2538 23.681 9.54267C23.681 4.2724 19.369 0 14.05 0Z" fill="white"/>
<path d="M0 13.6H11.8425C15.0128 13.6 17.8757 14.9039 19.9148 17C17.8757 19.0961 15.0128 20.4 11.8425 20.4H0V13.6Z" fill="white"/>
<path d="M0 34H14.05C19.369 34 23.681 29.7276 23.681 24.4573C23.681 22.7462 23.1863 21.1386 22.3864 19.7524C22.0596 21.7762 19.7719 27.2 12.9615 27.2H0V34Z" fill="white"/>
<path d="M81.2575 23.8168C82.0376 24.2373 82.9863 24.4476 84.1037 24.4476C84.9681 24.4476 85.7165 24.3187 86.349 24.061C86.9885 23.8032 87.5261 23.4573 87.9618 23.0231C88.3975 22.589 88.7419 22.1074 88.9949 21.5783L87.3083 20.9678C86.9709 21.5037 86.5563 21.9412 86.0644 22.2804C85.5724 22.6127 84.9189 22.7789 84.1037 22.7789C83.3658 22.7789 82.7298 22.6195 82.1957 22.3007C81.6686 21.9751 81.2329 21.541 80.8886 20.9983C80.5442 20.4489 80.2912 19.835 80.1296 19.1566C79.968 18.4783 79.8872 17.7864 79.8872 17.081C79.8872 16.4298 79.9574 15.7684 80.098 15.0968C80.2456 14.4253 80.481 13.808 80.8043 13.245C81.1346 12.682 81.5703 12.2275 82.1114 11.8816C82.6525 11.5356 83.3166 11.3626 84.1037 11.3626C84.6448 11.3626 85.1051 11.4372 85.4846 11.5865C85.8641 11.7357 86.1909 11.9426 86.465 12.2072C86.739 12.4649 86.992 12.76 87.2239 13.0924L88.8684 12.2784C88.6505 11.851 88.3413 11.444 87.9407 11.0574C87.5472 10.6639 87.0342 10.3417 86.4017 10.0908C85.7763 9.83978 85.0102 9.71429 84.1037 9.71429C83.0074 9.71429 82.0692 9.92796 81.2892 10.3553C80.5161 10.7759 79.8872 11.3423 79.4023 12.0545C78.9174 12.7668 78.5589 13.5604 78.327 14.4355C78.1022 15.3037 77.9897 16.1856 77.9897 17.081C77.9897 17.9831 78.0986 18.8717 78.3165 19.7468C78.5414 20.6218 78.8928 21.4155 79.3706 22.1277C79.8485 22.8332 80.4775 23.3962 81.2575 23.8168Z" fill="white"/>
<path fill-rule="evenodd" clip-rule="evenodd" d="M39.3804 9.95848V24.2034H44.9463C45.8458 24.2034 46.6012 24.0847 47.2126 23.8473C47.8311 23.6031 48.323 23.2809 48.6884 22.8807C49.0609 22.4805 49.3279 22.0395 49.4896 21.5579C49.6512 21.0763 49.732 20.5947 49.732 20.1131C49.732 19.5704 49.6266 19.0719 49.4158 18.6174C49.205 18.1629 48.8957 17.7728 48.4881 17.4473C48.0876 17.1149 47.6027 16.8639 47.0334 16.6943C47.7221 16.4094 48.2562 16.0058 48.6357 15.4835C49.0152 14.9612 49.205 14.3744 49.205 13.7232C49.205 13.0924 49.0644 12.4887 48.7833 11.9121C48.5022 11.3355 48.0278 10.8674 47.3602 10.5079C46.6926 10.1416 45.7755 9.95848 44.6089 9.95848H39.3804ZM45.1571 22.5754H41.2146V17.6101H44.4824C45.403 17.6101 46.1093 17.7355 46.6012 17.9865C47.1002 18.2307 47.4445 18.5529 47.6343 18.9531C47.824 19.3534 47.9189 19.7807 47.9189 20.2352C47.9189 20.6151 47.8381 20.9847 47.6765 21.3443C47.5218 21.7038 47.2443 21.9988 46.8437 22.2295C46.4431 22.4601 45.8809 22.5754 45.1571 22.5754ZM44.2505 16.0024H41.2146V11.5661H44.7143C45.4522 11.5661 46.0144 11.6747 46.401 11.8917C46.7875 12.1088 47.0475 12.3869 47.181 12.7261C47.3216 13.0585 47.3918 13.3976 47.3918 13.7436C47.3918 14.4219 47.1283 14.968 46.6012 15.3817C46.0812 15.7955 45.2976 16.0024 44.2505 16.0024Z" fill="white"/>
<path d="M53.113 9.95848V24.2034H62.1996V22.494H54.9472V9.95848H53.113Z" fill="white"/>
<path fill-rule="evenodd" clip-rule="evenodd" d="M64.2693 24.2034L69.4978 9.95848H71.2055L76.434 24.2034H74.5577L73.2927 20.7236H67.4317L66.1879 24.2034H64.2693ZM67.9799 19.1566H72.7235L70.8261 13.886C70.7769 13.7504 70.7206 13.5943 70.6574 13.418C70.6012 13.2348 70.545 13.0585 70.4887 12.8889C70.4325 12.7125 70.3903 12.5633 70.3622 12.4412C70.3271 12.5633 70.2814 12.7125 70.2252 12.8889C70.176 13.0585 70.1198 13.2348 70.0565 13.418C70.0003 13.5943 69.9476 13.7504 69.8984 13.886L67.9799 19.1566Z" fill="white"/>
<path d="M92.0871 9.95848H93.9213V16.9385L99.6769 9.95848H101.743L97.674 14.8832L102.945 24.2034H100.815L96.4301 16.3687L93.9213 19.3398V24.2034H92.0871V9.95848Z" fill="white"/>
<path d="M114.336 15.4019L118.344 24.4476L122.309 15.4428C122.414 15.1972 122.527 14.9243 122.646 14.6242C122.773 14.324 122.878 14.058 122.963 13.826C122.956 14.0102 122.945 14.2592 122.931 14.573C122.924 14.88 122.92 15.1563 122.92 15.4019V24.202H124.755V9.87619H123.005L118.723 19.5154C118.653 19.6792 118.586 19.8429 118.523 20.0066C118.46 20.1635 118.4 20.3204 118.344 20.4773L118.154 19.9861C118.091 19.8224 118.027 19.6655 117.964 19.5154L113.661 9.87619H111.932V24.202H113.767V15.4019C113.767 15.1563 113.76 14.8834 113.746 14.5833C113.739 14.2763 113.725 14.0307 113.704 13.8465C113.788 14.0784 113.886 14.3377 113.999 14.6242C114.118 14.9039 114.231 15.1631 114.336 15.4019Z" fill="white"/>
<path fill-rule="evenodd" clip-rule="evenodd" d="M132.711 9.87619L127.48 24.202H129.399L130.644 20.7024H136.507L137.773 24.202H139.65L134.419 9.87619H132.711ZM135.938 19.1266H131.192L133.111 13.826C133.161 13.6896 133.213 13.5327 133.27 13.3553C133.333 13.1711 133.389 12.9938 133.438 12.8232C133.495 12.6459 133.54 12.4958 133.575 12.373C133.604 12.4958 133.646 12.6459 133.702 12.8232C133.758 12.9938 133.814 13.1711 133.871 13.3553C133.934 13.5327 133.99 13.6896 134.039 13.826L135.938 19.1266Z" fill="white"/>
<path fill-rule="evenodd" clip-rule="evenodd" d="M142.374 24.202V9.87619H148.195C149.377 9.87619 150.305 10.074 150.98 10.4697C151.661 10.8654 152.143 11.377 152.424 12.0046C152.713 12.6254 152.857 13.2735 152.857 13.9488C152.857 14.515 152.741 15.0744 152.509 15.627C152.284 16.1727 151.918 16.6537 151.412 17.0698C150.906 17.4859 150.241 17.7759 149.419 17.9396L152.582 24.202H150.516L147.478 18.0624H144.209V24.202H142.374ZM144.209 16.4047H148.238C148.927 16.4047 149.472 16.2853 149.872 16.0465C150.28 15.8078 150.568 15.5042 150.737 15.1358C150.913 14.7674 151.001 14.3854 151.001 13.9898C151.001 13.635 150.92 13.2701 150.758 12.8949C150.603 12.5128 150.326 12.1922 149.925 11.933C149.524 11.6669 148.962 11.5339 148.238 11.5339H144.209V16.4047Z" fill="white"/>
<path d="M156.401 9.87619V24.202H158.236V19.3108L160.746 16.3228L165.133 24.202H167.263L161.99 14.8288L166.061 9.87619H163.994L158.236 16.8959V9.87619H156.401Z" fill="white"/>
<path d="M170.283 24.202V9.87619H179.057V11.5544H172.118V15.9544H176.695V17.6326H172.118V22.5034H179.521V24.202H170.283Z" fill="white"/>
<path d="M186.052 11.5748V24.202H187.887V11.5748H192V9.87619H181.939V11.5748H186.052Z" fill="white"/>
</svg>
